<svg xmlns="http://www.w3.org/2000/svg" xmlns:xlink="http://www.w3.org/1999/xlink" width="100" height="100" viewBox="0 0 100 100"><rect width="100%" height="100%" fill="#FFFFFF"></rect><g transform="translate(50 50) scale(0.69 0.69) rotate(0) translate(-50 -50)" style="fill:#000000"><svg fill="#000000" xmlns="http://www.w3.org/2000/svg" xmlns:xlink="http://www.w3.org/1999/xlink" version="1.1" x="0px" y="0px" viewBox="0 0 100 100" style="enable-background:new 0 0 100 100;" xml:space="preserve"><path d="M17.5,82.5c1,1,2.4,1.6,3.8,1.6s2.7-0.5,3.8-1.6l25-25l25,25c1,1,2.4,1.6,3.8,1.6s2.7-0.5,3.8-1.6c2.1-2.1,2.1-5.5,0-7.5  l-25-25l25-25c2.1-2.1,2.1-5.5,0-7.5c-2.1-2.1-5.4-2.1-7.5,0l-25,25l-25-25c-2.1-2.1-5.4-2.1-7.5,0c-2.1,2.1-2.1,5.5,0,7.5l25,25  l-25,25C15.4,77.1,15.4,80.4,17.5,82.5z"></path></svg></g></svg>